<?xml version="1.0" encoding="UTF-8"?>
<svg version="1.1" xmlns="http://www.w3.org/2000/svg" width="2000" height="633">
<path d="M0 0 C4.71088607 0.00379306 9.42175121 0.00238627 14.13263655 -0.00180173 C40.34693898 -0.02446119 66.55704577 -0.01719486 92.76593733 0.57388186 C93.65483908 0.59329711 94.54374083 0.61271235 95.45957899 0.63271594 C125.41955449 1.30984556 148.5573021 5.03532851 171.78156233 25.12856936 C172.82570295 26.01995608 172.82570295 26.01995608 173.89093733 26.92935061 C186.9143019 38.96700182 194.77952123 56.47061191 196.06671858 74.01528811 C196.63064338 90.50508924 192.71527386 106.23152523 181.96906233 119.06606936 C177.06658294 124.1879204 171.30427406 128.2692208 165.04328108 131.57388186 C162.62032774 132.92008214 162.62032774 132.92008214 161.96906233 135.31606936 C161.90718733 135.91419436 161.84531233 136.51231936 161.78156233 137.12856936 C162.62074202 137.33159671 162.62074202 137.33159671 163.47687483 137.53872561 C181.93576516 142.49472993 196.09455366 153.29292505 206.78156233 169.12856936 C217.84005684 188.43959211 220.81256449 210.85627962 215.82062483 232.50356936 C209.2899853 255.2871539 194.82286839 276.22285332 174.02619123 288.13394046 C133.72485644 310.36086401 83.53212984 306.29703064 38.90508199 306.26289487 C34.43526342 306.26030552 29.96544656 306.26272738 25.49562788 306.26428103 C17.97773569 306.26608759 10.4598534 306.26374035 2.94196272 306.25894046 C-4.67262718 306.25413337 -12.28719742 306.25410591 -19.90178728 306.25894046 C-44.34094778 306.27384118 -68.77954298 306.25137567 -93.21843767 306.12856936 C-93.90341546 306.12529069 -94.58839325 306.12201201 -95.29412794 306.11863399 C-102.71805443 306.082543 -110.14093848 306.02579399 -117.56410074 305.91149402 C-119.40476061 305.88492594 -121.24552034 305.86438786 -123.08632135 305.85074115 C-133.85150266 305.76177013 -143.56499591 305.46506486 -152.03093767 298.00356936 C-159.8913248 289.19771115 -161.34710053 279.53906438 -162.21843767 268.12856936 C-162.36732439 266.28778811 -162.36732439 266.28778811 -162.51921892 264.40981936 C-162.82053724 259.98448763 -163.02311309 255.55965124 -163.21843767 251.12856936 C-163.25995455 250.20958865 -163.30147142 249.29060794 -163.34424639 248.34377933 C-164.43517716 223.10031971 -164.40597402 197.84969986 -164.40374041 172.5873096 C-164.40365993 167.70120359 -164.41049132 162.81519292 -164.42424822 157.92910647 C-164.49895161 130.91469901 -164.28199317 103.93686209 -163.33171892 76.93716311 C-163.29277199 75.79389119 -163.25382505 74.65061927 -163.21369791 73.47270274 C-162.80565822 61.79131415 -162.23440871 50.137679 -161.26604509 38.48818851 C-161.19075988 37.55378908 -161.11547466 36.61938966 -161.03790808 35.6566751 C-160.07148635 24.83266272 -157.77255508 15.01929995 -150.15593767 6.94106936 C-142.79012897 2.39620868 -134.10123496 1.66614597 -125.62371111 1.47573733 C-124.63660017 1.44340943 -123.64948923 1.41108153 -122.63246584 1.377774 C-119.49467362 1.27987681 -116.35688216 1.20234677 -113.21843767 1.12856936 C-111.18983206 1.07440793 -109.16122692 1.02022915 -107.13262224 0.96603274 C-100.66694332 0.80378059 -94.2008058 0.68453136 -87.73406267 0.57388186 C-86.5470199 0.55294593 -85.35997713 0.53200999 -84.13696337 0.51043963 C-56.09201997 0.02566603 -28.04841118 -0.02520407 0 0 Z M14.78156233 54.12856936 C12.36799085 57.68163757 12.53732361 60.95834138 12.55109358 65.16763186 C12.5515518 65.84852878 12.55201002 66.52942569 12.55248213 67.23095584 C12.5554977 68.67161687 12.56336324 70.11227485 12.57575178 71.55288577 C12.59382771 73.72537081 12.59626239 75.89742371 12.59601545 78.06997561 C11.67016233 90.57642611 11.67016233 90.57642611 15.07379866 101.82632327 C21.04593136 106.38034126 31.72761994 103.85716736 38.78156233 103.12856936 C47.35356921 101.83702815 56.23564098 99.12064215 62.25421858 92.51138186 C66.45739119 86.45519767 66.38722859 80.23216938 65.78156233 73.12856936 C64.1170038 65.93887982 61.02469349 61.07551909 54.78156233 57.12856936 C44.73666134 51.19205253 24.85442504 46.70646 14.78156233 54.12856936 Z M16.78156233 168.12856936 C13.85510281 172.01089892 13.33451838 175.06588427 13.11359358 179.87075686 C13.08119078 180.55225802 13.04878798 181.23375918 13.01540327 181.93591189 C12.60534094 191.59725797 12.52164702 201.27230499 12.48639631 210.94106936 C12.4747463 213.16737032 12.45409621 215.39364067 12.42487288 217.6197803 C12.38233461 220.87550243 12.36606374 224.13041705 12.35578108 227.38638186 C12.33827299 228.37703647 12.3207649 229.36769107 12.30272627 230.38836551 C12.32120189 236.25470827 12.78646339 239.70782606 16.78156233 244.12856936 C30.88563645 248.8299274 50.14353351 242.92962471 62.92609358 236.56216311 C71.86899372 231.28939983 77.8979125 224.28293593 81.12140608 214.34731936 C83.50108864 202.74460673 82.65260384 191.17078746 76.44953108 180.92935061 C69.85551339 172.16514989 57.94915717 167.63701489 47.48468733 165.56216311 C42.78379493 165.01174217 38.13717348 164.81174321 33.40656233 164.75356936 C32.56206526 164.73947024 31.71756819 164.72537112 30.8474803 164.71084476 C25.42971697 164.75324651 21.50439679 165.39052103 16.78156233 168.12856936 Z " fill="#191919" transform="translate(366.2184376716614,14.87143063545227)"/>
<path d="M0 0 C1.12135849 -0.00570007 2.24271698 -0.01140015 3.39805603 -0.01727295 C5.76544266 -0.02666828 8.13284204 -0.033235 10.50024414 -0.03710938 C14.02840746 -0.04670786 17.55595991 -0.07774017 21.08398438 -0.109375 C77.55103889 -0.37230298 134.79171484 13.43217902 176.02734375 53.828125 C201.44654821 79.32182889 216.39667125 112.89926248 216.40838623 149.08737183 C216.40639221 149.78557037 216.40439819 150.48376892 216.40234375 151.203125 C216.40152802 152.28462326 216.40152802 152.28462326 216.4006958 153.38796997 C216.35829414 165.67003575 215.32790995 177.33465067 212.02734375 189.203125 C211.70588379 190.36255615 211.70588379 190.36255615 211.37792969 191.54541016 C201.74888514 225.03682494 180.77225873 256.06414216 153.02734375 277.203125 C152.16496094 277.904375 151.30257813 278.605625 150.4140625 279.328125 C122.87627575 301.14023332 88.22755555 313.02131482 54.02734375 319.203125 C52.66512695 319.4508667 52.66512695 319.4508667 51.27539062 319.70361328 C-9.50603726 330.20676567 -82.36997099 318.49610963 -133.71264648 283.45019531 C-139.69505145 279.21130995 -145.1783786 274.52880455 -150.51953125 269.5 C-152.65565417 267.49993586 -154.84366222 265.62916338 -157.09765625 263.765625 C-162.03937601 259.45797519 -165.95960002 254.36178874 -169.97265625 249.203125 C-170.71644531 248.275 -171.46023438 247.346875 -172.2265625 246.390625 C-190.28990249 223.26954981 -200.46174449 195.4263695 -201.97265625 166.203125 C-202.03646484 165.02556641 -202.03646484 165.02556641 -202.1015625 163.82421875 C-203.11753191 124.87872488 -185.8694167 89.77276856 -159.6171875 61.9765625 C-158.74449219 61.06132813 -157.87179687 60.14609375 -156.97265625 59.203125 C-156.23402344 58.41164062 -155.49539063 57.62015625 -154.734375 56.8046875 C-145.15132779 46.81869681 -133.93631874 39.06840596 -121.97265625 32.203125 C-121.37598145 31.85427246 -120.77930664 31.50541992 -120.16455078 31.14599609 C-84.67333959 10.56830088 -40.91889783 0.16675543 0 0 Z M-7.97265625 122.203125 C-8.63265625 122.8528125 -9.29265625 123.5025 -9.97265625 124.171875 C-19.12873629 133.80154539 -22.3805564 146.00320619 -22.34130859 158.99121094 C-22.02129555 170.19426916 -18.56316122 178.98007795 -10.97265625 187.203125 C-10.22242188 188.10611328 -10.22242188 188.10611328 -9.45703125 189.02734375 C0.09895145 199.76575866 16.44856776 206.39896631 30.57592773 207.38012695 C51.77227733 207.86164417 68.72918264 205.71174024 84.74609375 190.48046875 C85.49890625 189.72894531 86.25171875 188.97742188 87.02734375 188.203125 C87.67703125 187.56503906 88.32671875 186.92695313 88.99609375 186.26953125 C100.24015997 174.40901403 102.67503102 160.37128041 102.33984375 144.68359375 C102.08278328 139.48561683 100.99063586 135.51503613 98.02734375 131.203125 C97.58003906 130.53539062 97.13273437 129.86765625 96.671875 129.1796875 C95.19756915 127.11644983 93.63670557 125.16234808 92.02734375 123.203125 C91.51429688 122.5328125 91.00125 121.8625 90.47265625 121.171875 C81.70311274 110.26239504 69.51831933 105.57821848 56.02734375 103.203125 C31.64520168 101.60498261 9.9072082 104.0749291 -7.97265625 122.203125 Z " fill="#191919" transform="translate(1189.97265625,6.796875)"/>
<path d="M0 0 C1.20076172 0.02320313 2.40152344 0.04640625 3.63867188 0.0703125 C91.2955351 1.86261641 91.2955351 1.86261641 106.69921875 16.62890625 C114.56085874 25.13775147 115.19556207 34.50605292 115.25 45.625 C115.2809375 47.16994141 115.2809375 47.16994141 115.3125 48.74609375 C115.36287191 58.75751032 113.89709615 70.04082915 106.515625 77.5 C99.44536284 83.66022842 90.84622856 82.47547745 82 82 C77.15994648 81.56207677 72.33127088 81.02503282 67.5 80.5 C56.15590303 79.28988369 44.90904969 78.66836043 33.5 78.625 C32.82815674 78.61750732 32.15631348 78.61001465 31.46411133 78.60229492 C13.7547832 78.438985 -4.70902039 81.32481867 -18 94 C-35.63806219 112.5090776 -36.96492276 140.8633523 -37 165 C-36.46498969 183.98110755 -34.764697 207.1626273 -20.1875 221.0625 C-12.45463171 227.07861181 -3.13931141 229.75395052 6.5625 228.5625 C7.366875 228.376875 8.17125 228.19125 9 228 C8.30583984 226.70835937 8.30583984 226.70835937 7.59765625 225.390625 C0.79405308 210.95168234 0.8317605 192.07930261 0.6875 176.4375 C0.66985596 175.3434082 0.65221191 174.24931641 0.6340332 173.12207031 C0.64147986 164.28085635 1.95162254 155.82381047 8 149 C19.81456838 140.55414765 36.0614652 140.51417365 50.02636719 140.66381836 C52.36688984 140.68741822 54.70626287 140.68434489 57.046875 140.67773438 C95.8330399 140.74844268 95.8330399 140.74844268 108.31640625 151.73046875 C115.03851267 160.79205537 114.57348052 170.30489772 114.49609375 181.11328125 C114.49624911 182.89096638 114.4977442 184.66865184 114.50050354 186.44633484 C114.50188436 190.16921 114.48939664 193.89169852 114.46655273 197.61450195 C114.43839764 202.32629157 114.44084724 207.0374286 114.45364285 211.74926472 C114.46069397 215.42422288 114.45270135 219.09903749 114.44038582 222.77397728 C114.43594587 224.50745271 114.43546722 226.24094401 114.43945122 227.97442055 C114.46642172 250.06190884 112.73044732 277.33773978 96.8203125 294.4140625 C81.50993362 307.75314797 62.939319 310.17128235 43.5 311.625 C41.88523301 311.75152399 40.27048712 311.8783175 38.65576172 312.00537109 C27.80806114 312.84561373 16.96519843 313.56826293 6.08886719 313.90283203 C3.87574949 313.97245113 1.662871 314.04984346 -0.54980469 314.13232422 C-21.85413489 314.92226006 -43.16731862 315.15249458 -64.48474121 315.23117065 C-67.37325349 315.24210131 -70.26159143 315.25977762 -73.15002441 315.28372192 C-110.88113045 315.58151552 -153.09727244 312.57280663 -181.96484375 285.01953125 C-182.97224609 284.01986328 -182.97224609 284.01986328 -184 283 C-184.86625 282.175 -185.7325 281.35 -186.625 280.5 C-187.800625 279.2625 -187.800625 279.2625 -189 278 C-189.58007812 277.42636719 -190.16015625 276.85273438 -190.7578125 276.26171875 C-219.77328436 246.05149217 -224.7644042 196.75232381 -224.08886719 157.21679688 C-222.9964618 117.67412291 -206.47609861 77.89164988 -179.15625 49.296875 C-176.94778316 47.0062496 -176.94778316 47.0062496 -174.92578125 44.3984375 C-154.20812191 18.59591654 -117.59942803 6.86452277 -86.06213379 3.21429443 C-79.70482096 2.55365022 -73.31908089 2.25872572 -66.9375 1.9375 C-65.36278697 1.85444318 -63.78808003 1.77127059 -62.21337891 1.68798828 C-41.50487443 0.61287887 -20.73967907 -0.40808926 0 0 Z " fill="#191919" transform="translate(1664,10)"/>
<path d="M0 0 C1.13149979 -0.00335861 2.26299957 -0.00671722 3.42878723 -0.01017761 C7.14288451 -0.01962119 10.8569364 -0.02162733 14.57104492 -0.02270508 C17.17119871 -0.02592201 19.77135232 -0.0292864 22.37150574 -0.03279114 C27.81245419 -0.03876576 33.25338486 -0.0406758 38.69433594 -0.04003906 C44.95182014 -0.03943889 51.20921798 -0.04998643 57.46668035 -0.06578273 C63.5236342 -0.0805188 69.58054711 -0.08402485 75.63751793 -0.08342934 C78.19736776 -0.08460361 80.75721834 -0.08899408 83.31705666 -0.0967617 C86.90805717 -0.10663929 90.49883917 -0.10365311 94.08984375 -0.09765625 C95.65125092 -0.10608551 95.65125092 -0.10608551 97.24420166 -0.11468506 C119.88175688 -0.01937843 119.88175688 -0.01937843 127.23901367 6.14526367 C144.13208083 26.16239119 138.38328909 65.56292127 138.43824387 89.90904999 C138.44914997 94.61023952 138.46943754 99.31136277 138.49136353 104.01251221 C138.55257852 117.36011783 138.60741906 130.70771187 138.64038086 144.05541992 C138.65877294 151.47200302 138.68773755 158.88846699 138.72838557 166.3049624 C138.7493222 170.20901191 138.7648943 174.11291258 138.76719284 178.01702118 C138.76935263 181.67815692 138.78535589 185.3389791 138.81158257 189.00001907 C138.8220916 190.96455379 138.81804743 192.92914994 138.81340027 194.89370728 C138.90331889 204.56826483 139.71349778 214.50108791 146.23901367 222.14526367 C154.00166175 228.35538214 161.59214151 228.43852837 171.12182617 228.41650391 C172.30153992 228.42173065 173.48125366 228.4269574 174.69671631 228.43234253 C177.91570777 228.44522132 181.13458732 228.44963332 184.35359955 228.45118594 C187.73227492 228.4556756 191.11087196 228.47368315 194.48950195 228.49098206 C204.53022613 228.5400348 214.57099588 228.57104461 224.61181641 228.59228516 C232.42231433 228.60883016 240.23266598 228.63169366 248.04306602 228.6753059 C251.40174556 228.69346741 254.76022465 228.7057052 258.11895752 228.7040081 C261.86489078 228.70420018 265.61034268 228.72246879 269.35620117 228.74462891 C270.46082703 228.74005173 271.56545288 228.73547455 272.70355225 228.73075867 C279.45804875 228.79427143 284.68277136 229.30908696 290.12963867 233.65307617 C290.57823242 234.18674805 291.02682617 234.72041992 291.48901367 235.27026367 C291.94791992 235.7884668 292.40682617 236.30666992 292.87963867 236.84057617 C297.56747919 244.78835176 297.71869103 252.78815591 297.61401367 261.83276367 C297.6045874 263.07703125 297.59516113 264.32129883 297.58544922 265.60327148 C297.19123645 289.57015138 297.19123645 289.57015138 289.23901367 298.14526367 C279.38215437 306.87947385 264.77705261 305.54015629 252.41333008 305.76196289 C250.61228077 305.79986255 248.81123318 305.83784348 247.01018715 305.87589836 C224.38700571 306.32279143 201.7587381 306.29184938 179.13214445 306.27958918 C172.84262269 306.27700483 166.55310216 306.27941886 160.26358032 306.28097534 C149.0761118 306.28289048 137.88865103 306.2798497 126.70118375 306.274716 C116.59578854 306.2702227 106.49040479 306.27105228 96.38500977 306.27563477 C84.54348417 306.28100228 72.70196408 306.28297194 60.86043704 306.2800225 C54.62923891 306.27847317 48.39804865 306.27822953 42.16685104 306.28155899 C36.33053682 306.2844622 30.49424419 306.2824173 24.65793228 306.27666473 C22.52917262 306.27535182 20.40041112 306.27570602 18.27165222 306.2779274 C-22.57895999 306.31660642 -22.57895999 306.31660642 -34.66333008 294.48120117 C-44.48476848 283.54410589 -43.22192739 265.46947816 -43.87426758 251.46166992 C-43.91626093 250.57903536 -43.95825428 249.69640079 -44.00152016 248.78701973 C-45.38569619 218.45856977 -45.02408542 188.06274647 -44.96158326 157.7108742 C-44.94821379 150.89898344 -44.94588392 144.08712484 -44.94653243 137.27522272 C-44.94721527 128.9696839 -44.94024872 120.66416355 -44.93108582 112.35863042 C-44.92899136 110.02552862 -44.9282499 107.69242996 -44.92784691 105.35932732 C-44.90017423 22.98334221 -44.90017423 22.98334221 -33.76098633 8.14526367 C-24.32376783 -0.88164098 -12.32980946 -0.00533681 0 0 Z " fill="#191919" transform="translate(668.760986328125,15.854736328125)"/>
<path d="M0 0 C1.13308594 -0.01160156 2.26617188 -0.02320313 3.43359375 -0.03515625 C20.41193223 0.02318856 35.70642925 5.58608208 47.96484375 17.51953125 C56.05348085 26.63015331 61.1681427 36.64163587 64.5 48.375 C64.81839844 49.42945313 65.13679688 50.48390625 65.46484375 51.5703125 C71.38904841 75.10332824 69.25162411 103.88258524 57.5 125.375 C47.77883809 140.6170482 35.06354462 150.24871605 17.56933594 154.79272461 C11.91719436 155.86497705 6.29752201 155.80595143 0.5625 155.75 C-0.62279297 155.76160156 -1.80808594 155.77320313 -3.02929688 155.78515625 C-19.9069673 155.72960714 -34.03249562 150.47678936 -46.29296875 138.671875 C-60.37524842 124.01633438 -66.721616 104.51145563 -67.5 84.375 C-67.53996094 83.49457031 -67.57992188 82.61414063 -67.62109375 81.70703125 C-68.11756184 60.06686323 -63.60541634 36.56736341 -49.0625 19.8125 C-35.0912805 5.55420065 -19.88652819 -0.20361633 0 0 Z M-32.125 31.875 C-45.35675451 47.96850606 -48.2227959 69.34390181 -46.29785156 89.49072266 C-44.25406028 105.0196802 -37.98685107 119.82039935 -25.5625 129.75 C-14.35161744 137.55560462 -2.79320794 138.46391171 10.5 137.375 C16.84361379 136.00244679 22.42074567 133.43840346 27.5 129.375 C28.11230469 128.8903125 28.72460938 128.405625 29.35546875 127.90625 C39.44642012 119.00591378 44.46029041 105.36935681 46.5 92.375 C46.62890625 91.57707031 46.7578125 90.77914062 46.890625 89.95703125 C47.18622332 87.75949113 47.37049991 85.58827424 47.5 83.375 C47.55285156 82.60671875 47.60570312 81.8384375 47.66015625 81.046875 C48.34843276 61.53573232 43.11670918 42.67817576 29.8125 28.125 C20.27098638 18.91440593 8.81477154 17.90474638 -3.71484375 18.09765625 C-14.79720456 18.53213148 -24.50813374 23.95345909 -32.125 31.875 Z " fill="#191919" transform="translate(1702.5,442.625)"/>
<path d="M0 0 C75.81704322 0 75.81704322 0 89.375 12.875 C100.28387289 24.71891913 102.94011307 38.4376476 102.37890625 54.1484375 C101.56087756 67.25228262 96.7798881 77.7820902 87.1875 86.8125 C77.08278813 95.08353829 66.25702102 97.33974793 53.49609375 97.1953125 C52.64019653 97.19329834 51.78429932 97.19128418 50.90246582 97.18920898 C47.74742161 97.17885402 44.59245463 97.15093271 41.4375 97.125 C34.363125 97.08375 27.28875 97.0425 20 97 C20 114.82 20 132.64 20 151 C13.4 151 6.8 151 0 151 C0 101.17 0 51.34 0 0 Z M20 18 C20 38.13 20 58.26 20 79 C29.590625 79.12375 29.590625 79.12375 39.375 79.25 C42.37086182 79.30462402 42.37086182 79.30462402 45.42724609 79.36035156 C56.89890187 79.48288784 66.69153895 78.97075517 75.53125 70.77734375 C82.12544884 62.79766165 82.63714486 52.88712289 82 43 C80.30831458 33.88231314 76.52370962 27.56754512 69 22 C62.36380966 18.20789124 56.65271118 17.85437367 49.19921875 17.90234375 C48.45724243 17.90335083 47.71526611 17.90435791 46.95080566 17.90539551 C44.19635457 17.91060188 41.44192563 17.92456305 38.6875 17.9375 C32.520625 17.958125 26.35375 17.97875 20 18 Z " fill="#191919" transform="translate(18,445)"/>
<path d="M0 0 C1.04607422 -0.01160156 2.09214844 -0.02320313 3.16992188 -0.03515625 C18.91211382 0.02347389 33.89806033 5.92766993 45.2578125 16.93359375 C52.11347897 24.61243165 59.4375 35.81844564 59.4375 46.375 C52.8375 47.695 46.2375 49.015 39.4375 50.375 C38.756875 48.580625 38.07625 46.78625 37.375 44.9375 C33.24019906 35.10431793 27.82877757 28.49893088 18.4375 23.375 C17.34888672 22.75431641 17.34888672 22.75431641 16.23828125 22.12109375 C7.06887623 17.65314937 -4.8566033 17.84003255 -14.5 20.8125 C-25.50155184 25.56089016 -33.02082509 35.28407933 -37.75 46 C-45.62713281 67.52204068 -44.95515656 92.77049029 -35.59887695 113.70361328 C-30.9332528 123.2878962 -23.6623126 131.45620146 -13.5625 135.375 C-2.73599068 138.91479783 7.76700608 137.91522796 18.078125 133.15625 C29.35266878 126.93104178 34.66636051 118.06790624 39.4375 106.375 C45.87724581 106.99820121 52.11322401 108.01508262 58.4375 109.375 C60.32878244 114.31136611 57.96918216 118.27949083 56.08984375 122.91796875 C53.52262251 128.28910538 50.23121951 132.80930269 46.4375 137.375 C45.91671875 138.02082031 45.3959375 138.66664063 44.859375 139.33203125 C37.2006567 147.89973884 25.55900638 153.2723402 14.4375 155.375 C13.50679687 155.55546875 12.57609375 155.7359375 11.6171875 155.921875 C-6.10935806 158.44801663 -22.91983338 155.17392549 -37.6953125 144.890625 C-52.65271178 133.04201851 -59.67569683 113.40167078 -63.15234375 95.3046875 C-64.78101329 79.7004822 -65.15328842 62.49325906 -60.5625 47.375 C-60.21058594 46.19421875 -59.85867188 45.0134375 -59.49609375 43.796875 C-53.74932354 26.27207079 -44.32487073 14.23063323 -28.4453125 5.06640625 C-19.39565655 0.73718314 -9.89124687 -0.11010664 0 0 Z " fill="#191919" transform="translate(620.5625,442.625)"/>
<path d="M0 0 C1.04220703 -0.01160156 2.08441406 -0.02320313 3.15820312 -0.03515625 C19.47970434 0.02555609 33.53174271 5.64760685 45.34765625 17.00390625 C52.70644175 24.88183006 59.5625 35.26362325 59.5625 46.375 C52.9625 47.695 46.3625 49.015 39.5625 50.375 C38.881875 48.580625 38.20125 46.78625 37.5 44.9375 C32.68498644 33.50520524 25.10874707 25.26512209 13.5 20.4375 C4.20482555 17.79118699 -7.56540546 17.88648652 -16.30078125 22.11328125 C-30.28320085 30.36981056 -36.80513243 42.05524725 -40.89453125 57.64453125 C-45.03475542 78.46479525 -43.0217004 102.72880236 -31.125 120.75 C-24.09975419 130.07661944 -16.04932392 135.44276306 -4.4375 137.375 C6.08156986 138.20040147 15.73956931 135.90295378 24.109375 129.39453125 C31.97452373 122.63469188 36.25777941 116.1152291 39.5625 106.375 C46.00224581 106.99820121 52.23822401 108.01508262 58.5625 109.375 C60.64814791 116.4739755 56.59474464 122.63518885 53.2421875 128.8046875 C44.44599967 142.92885196 31.55822622 151.44910829 15.5625 155.375 C-1.30611065 158.32700686 -18.76071731 156.74618673 -33.4375 147.375 C-37.01599573 144.59228873 -40.25140272 141.59547963 -43.4375 138.375 C-43.98921875 137.85679687 -44.5409375 137.33859375 -45.109375 136.8046875 C-60.52574978 120.97389405 -63.85079032 95.04136241 -63.80541992 74.10839844 C-63.46966367 52.52452236 -57.84992892 31.94727883 -43.0546875 15.76953125 C-31.00486545 4.20402681 -16.39397059 -0.18181853 0 0 Z " fill="#191919" transform="translate(1212.4375,442.625)"/>
<path d="M0 0 C6.27 0 12.54 0 19 0 C19.33 18.81 19.66 37.62 20 57 C23.96 52.545 23.96 52.545 28 48 C31.265625 45.84375 31.265625 45.84375 34.25 44.5 C35.24515625 44.0359375 36.2403125 43.571875 37.265625 43.09375 C46.54552664 39.38178935 60.29169682 39.11989331 69.6875 42.5 C79.46328419 47.46547768 85.24785661 54.81203131 89 65 C91.27319369 75.29391683 91.26875851 85.64282881 91.1953125 96.1171875 C91.1915709 97.71143413 91.18872937 99.30568309 91.18673706 100.89993286 C91.1791907 105.04594551 91.15962243 109.19181249 91.1373291 113.33776855 C91.11667393 117.58844026 91.10769378 121.83913606 91.09765625 126.08984375 C91.07636564 134.39330266 91.04125984 142.69661629 91 151 C84.73 151 78.46 151 72 151 C71.98018066 149.00291992 71.96036133 147.00583984 71.93994141 144.94824219 C71.87265586 138.30653712 71.7950251 131.66498089 71.71247292 125.02344894 C71.6627944 121.00166944 71.61646508 116.97991266 71.578125 112.95800781 C71.54090879 109.06751231 71.49445739 105.17722129 71.44193649 101.28690338 C71.42358341 99.81200036 71.40840728 98.33705383 71.39665604 96.86208344 C71.75383794 79.41869943 71.75383794 79.41869943 65 64 C57.74900949 58.42668965 49.860542 57.88208115 41 59 C33.73668386 60.96193022 29.49283828 64.84729276 24.875 70.6875 C19.67322267 79.87730662 19.53266806 89.32456722 19.48828125 99.6328125 C19.47140255 101.12069143 19.4532481 102.60855638 19.43388367 104.09640503 C19.38672326 107.97932564 19.35669579 111.86218956 19.33044434 115.74530029 C19.30046568 119.72093906 19.25399563 123.69638304 19.20898438 127.671875 C19.12333842 135.44783583 19.05735057 143.22376957 19 151 C12.73 151 6.46 151 0 151 C0 101.17 0 51.34 0 0 Z " fill="#1A1A1A" transform="translate(1300,445)"/>
<path d="M0 0 C6.27 0 12.54 0 19 0 C19.33 29.04 19.66 58.08 20 88 C41.02768257 67.63366967 41.02768257 67.63366967 60.16015625 46.02734375 C63.27248286 42.96374241 65.60686976 42.5058732 69.93359375 42.31640625 C72.10262299 42.36255581 74.27113681 42.44550353 76.4375 42.5625 C77.55060547 42.59408203 78.66371094 42.62566406 79.81054688 42.65820312 C82.54312072 42.74029762 85.27015941 42.85504989 88 43 C86.59490901 46.18259851 84.93078658 48.31348466 82.46826172 50.75878906 C81.74766571 51.47923401 81.0270697 52.19967896 80.28463745 52.94195557 C79.50750397 53.70876648 78.73037048 54.47557739 77.9296875 55.265625 C77.13345978 56.05902283 76.33723206 56.85242065 75.51687622 57.66986084 C72.97424052 60.20130703 70.42473652 62.72570803 67.875 65.25 C66.14928247 66.96568617 64.42401645 68.68182662 62.69921875 70.3984375 C58.47136968 74.60424248 54.23786131 78.80428507 50 83 C53.87125839 90.05149398 53.87125839 90.05149398 58.05859375 96.91796875 C58.87432861 98.19426147 58.87432861 98.19426147 59.70654297 99.49633789 C60.27775879 100.38442139 60.84897461 101.27250488 61.4375 102.1875 C62.67842361 104.12757974 63.91930786 106.06768465 65.16015625 108.0078125 C65.79324707 108.99555664 66.42633789 109.98330078 67.07861328 111.00097656 C72.40816482 119.31968191 77.71398237 127.65356744 83 136 C83.45761719 136.7223584 83.91523437 137.4447168 84.38671875 138.18896484 C85.55516851 140.0391601 86.71687988 141.89332701 87.875 143.75 C88.79925781 145.22726562 88.79925781 145.22726562 89.7421875 146.734375 C91 149 91 149 91 151 C83.40194483 152.25539803 75.48276728 153.26220113 68 151 C62.6593299 146.89618497 60.26939902 140.13332726 57.54736328 134.16357422 C54.94633341 128.84578548 51.74374653 123.89853341 48.58224487 118.90228271 C44.24037228 112.02272314 39.97081899 105.10087783 36 98 C29.52748044 100.79183693 23.5489185 105.8848155 20 112 C18.02654927 118.53905567 18.5423385 125.50038672 18.75 132.25 C18.76199912 134.0741909 18.76855101 135.89842615 18.76953125 137.72265625 C18.77355692 142.15492432 18.8888875 146.5640473 19 151 C12.73 151 6.46 151 0 151 C0 101.17 0 51.34 0 0 Z " fill="#191919" transform="translate(928,445)"/>
<path d="M0 0 C1.10287354 0.00829834 2.20574707 0.01659668 3.34204102 0.02514648 C15.78762827 0.28337657 26.25554164 2.75600487 35.6875 11.4375 C41.12695904 17.82688536 43.6875 23.97033951 43.6875 32.4375 C37.0875 32.4375 30.4875 32.4375 23.6875 32.4375 C22.6975 30.1275 21.7075 27.8175 20.6875 25.4375 C15.20570616 19.83111994 9.54839361 18.21844681 1.78808594 18.10839844 C1.11551758 18.11387695 0.44294922 18.11935547 -0.25 18.125 C-0.9522168 18.12918945 -1.65443359 18.13337891 -2.37792969 18.13769531 C-8.95196371 18.28120651 -13.63456042 19.17155113 -18.75 23.5 C-21.35026473 26.72432827 -21.7310559 29.24279874 -21.640625 33.41015625 C-21.41669361 35.70229695 -21.41669361 35.70229695 -19.4375 38.1875 C-10.66366659 44.50466005 0.13595754 46.00298171 10.5234375 48.06054688 C22.60079341 50.57895007 33.26059657 54.02900122 41.6875 63.4375 C46.33730502 70.84812675 46.94167627 79.86925956 45.0390625 88.31640625 C42.15424075 97.18045256 37.03141926 103.74245345 28.921875 108.41015625 C22.30045537 111.45462017 14.94332032 112.98572251 7.6875 113.4375 C6.88054687 113.49035156 6.07359375 113.54320312 5.2421875 113.59765625 C-8.98625541 114.07470317 -24.16833767 110.11126531 -34.78515625 100.1953125 C-40.81764302 93.25255279 -44.3125 85.67887995 -44.3125 76.4375 C-37.3825 76.4375 -30.4525 76.4375 -23.3125 76.4375 C-22.6525 79.0775 -21.9925 81.7175 -21.3125 84.4375 C-17.91501848 90.18708411 -12.43014066 92.39828645 -6.3125 94.4375 C-3.40364618 94.58711464 -0.53456142 94.66868311 2.375 94.6875 C3.15294922 94.708125 3.93089844 94.72875 4.73242188 94.75 C11.68779898 94.79640785 17.23740618 93.57481589 22.625 88.875 C25.94743949 84.9484806 26.03571493 82.57367024 25.6875 77.4375 C24.6743461 74.53312549 23.67850854 73.02975697 21.01831055 71.43994141 C12.94117794 67.67919034 4.40777002 66.41147585 -4.30078125 64.81445312 C-16.31502205 62.49624788 -30.07816546 59.56658328 -37.90625 49.359375 C-42.62139051 41.44841703 -42.66866192 32.36472535 -40.6484375 23.53515625 C-37.40301192 14.37741189 -30.94811572 7.69964551 -22.3125 3.4375 C-14.90781166 0.51305753 -7.90589448 -0.07652226 0 0 Z " fill="#191919" transform="translate(295.3125,485.5625)"/>
<path d="M0 0 C1.4393875 1.05295734 2.85687996 2.13654946 4.25 3.25 C4.92675781 3.77851563 5.60351562 4.30703125 6.30078125 4.8515625 C10.96795764 8.9659277 13.82679052 13.64876916 16.625 19.125 C16.95894775 19.77259277 17.29289551 20.42018555 17.63696289 21.08740234 C21.98011783 30.09104076 22.61745379 39.24901857 22.5625 49.125 C22.55686035 50.18493164 22.5512207 51.24486328 22.54541016 52.33691406 C22.30153124 68.01760381 17.79166214 81.52883221 6.7109375 92.99609375 C-2.9779153 101.86985258 -14.7586873 106.16889785 -27.875 106.6875 C-43.44963417 105.90090231 -56.1432292 100.69461656 -66.75 89.25 C-78.07064509 75.00719987 -80.28601705 56.8513326 -78.54785156 39.19677734 C-76.44951521 23.2533802 -69.28369369 10.95273227 -56.8125 0.875 C-40.74996066 -10.48787853 -16.38768221 -10.11448852 0 0 Z M-50.3125 18.8984375 C-59.09907978 29.66199773 -60.52346244 42.80581655 -59.75 56.25 C-58.16022 67.41601382 -54.81288269 76.64756943 -45.82421875 83.80859375 C-37.91693069 89.30348884 -29.0584729 89.09879692 -19.75 88.25 C-12.1503789 86.29491075 -6.07575729 81.82668439 -2.0625 75.0625 C2.32729679 67.17293395 3.79204745 58.86220123 3.6875 49.9375 C3.67992676 49.02323242 3.67235352 48.10896484 3.66455078 47.16699219 C3.40157046 36.29841882 0.95677893 25.36497697 -6.75 17.25 C-19.6897391 7.56566995 -38.49007816 6.42578245 -50.3125 18.8984375 Z " fill="#191919" transform="translate(208.75,492.75)"/>
<path d="M0 0 C6.27 0 12.54 0 19 0 C19.01458252 2.18931152 19.02916504 4.37862305 19.04418945 6.63427734 C19.09471192 13.89868537 19.16133729 21.16288302 19.23571491 28.42708397 C19.28028615 32.82783523 19.31957079 37.22849674 19.34643555 41.62939453 C19.37260156 45.88303762 19.41309605 50.13633283 19.46318626 54.38975906 C19.47976563 56.00586213 19.49133516 57.62202524 19.49761391 59.23820114 C19.0411506 73.46209517 19.0411506 73.46209517 24.6855011 85.92514038 C30.12560033 90.99610704 35.44656955 92.38963715 42.8125 92.375 C43.87827271 92.37584595 43.87827271 92.37584595 44.96557617 92.37670898 C50.7410871 92.25546102 54.21226844 91.09794395 59 88 C59.99 87.67 60.98 87.34 62 87 C63.09933664 85.19339481 63.09933664 85.19339481 64 83 C64.4021875 82.25363281 64.804375 81.50726562 65.21875 80.73828125 C65.6415625 79.93777344 66.064375 79.13726563 66.5 78.3125 C66.9228125 77.52488281 67.345625 76.73726562 67.78125 75.92578125 C71.40887228 67.21716237 71.33614355 58.408792 71.4140625 49.12109375 C71.4328071 47.69905007 71.45238287 46.27701713 71.4727478 44.85499573 C71.52372788 41.14141212 71.56353436 37.42779259 71.60089111 33.71405029 C71.64114678 29.91279463 71.69213988 26.11168399 71.7421875 22.31054688 C71.83854187 14.87379063 71.92207947 7.43697642 72 0 C78.27 0 84.54 0 91 0 C91 35.64 91 71.28 91 108 C84.73 108 78.46 108 72 108 C71.505 100.575 71.505 100.575 71 93 C69.68 94.98 68.36 96.96 67 99 C59.57832664 106.95179289 50.38870394 110.31169609 39.71484375 111.1875 C29.05626859 111.48827108 18.52570353 108.83707483 10.44140625 101.58984375 C-0.37122987 89.66371123 -0.4384036 74.89868295 -0.29296875 59.765625 C-0.28736089 58.03400035 -0.28309643 56.30237089 -0.28010559 54.57073975 C-0.26875038 50.05308469 -0.2393656 45.53572736 -0.20599365 41.01818848 C-0.17508962 36.39237493 -0.16155717 31.76651243 -0.14648438 27.140625 C-0.11448514 18.09359936 -0.06179557 9.04687122 0 0 Z " fill="#191919" transform="translate(1796,488)"/>
<path d="M0 0 C6.22923855 4.90788492 10.95407321 10.23353353 14.0625 17.625 C14.0625 18.615 14.0625 19.605 14.0625 20.625 C11.62936628 21.65751062 9.19193108 22.67619521 6.75 23.6875 C6.05970703 23.98205078 5.36941406 24.27660156 4.65820312 24.58007812 C-0.59765625 26.73828125 -0.59765625 26.73828125 -3.9375 25.625 C-5.3671875 23.69921875 -5.3671875 23.69921875 -6.8125 21.3125 C-10.88796823 15.0095087 -15.4584203 11.25190466 -22.9375 9.625 C-32.41351442 8.68756353 -41.3120326 9.03638345 -48.9296875 15.25 C-58.01968345 24.61308596 -60.18268766 36.80722221 -60.18847656 49.36914062 C-60.03007233 59.8814212 -57.54259371 70.44426958 -50.4375 78.4375 C-44.03303855 84.04140377 -37.86010825 86.10683071 -29.375 87 C-19.78685066 85.95402007 -13.43401961 82.87569806 -6.9375 75.625 C-5.33700091 73.3299447 -4.15144787 71.15845642 -2.9375 68.625 C2.91909906 70.28653012 8.5215134 72.09541916 14.0625 74.625 C12.60672885 83.85033627 6.79356912 90.71970687 -0.1484375 96.64453125 C-11.64354109 104.80702078 -25.54583105 106.1905302 -39.23046875 104.12890625 C-52.97800909 100.98102185 -63.8363566 94.09814473 -71.8125 82.3125 C-81.27283277 66.40396871 -82.50900006 45.7307317 -78.03125 27.96484375 C-72.94507011 12.43383016 -64.63043986 2.55480224 -50.2109375 -5 C-33.85621436 -11.86976438 -14.40403214 -10.28859439 0 0 Z " fill="#191919" transform="translate(884.9375,494.375)"/>
<path d="M0 0 C6.27 0 12.54 0 19 0 C19 8.91 19 17.82 19 27 C28.24 27 37.48 27 47 27 C47 32.94 47 38.88 47 45 C37.76 45 28.52 45 19 45 C19.08872026 53.06887382 19.17927382 61.13736769 19.28729248 69.20594788 C19.3370827 72.96392259 19.38357199 76.72186963 19.421875 80.47998047 C19.45894836 84.10463229 19.5053656 87.7290585 19.55806351 91.35351562 C19.57649106 92.73124199 19.59164122 94.10901651 19.60334396 95.48681641 C19.08805892 107.54863179 19.08805892 107.54863179 23.9375 117.9375 C28.25567958 120.16201675 32.43534335 120.30932834 37.1875 120.5625 C38.31188477 120.62727539 38.31188477 120.62727539 39.45898438 120.69335938 C41.30578375 120.79922685 43.15286834 120.9000976 45 121 C45 125.95 45 130.9 45 136 C33.8554803 139.2420421 22.52056055 138.7268318 11.72265625 134.00390625 C5.57378198 130.11544965 2.5145362 123.69785287 0.94702148 116.7902832 C-0.41580607 109.76080166 -0.24923933 102.71211446 -0.1953125 95.5859375 C-0.19157409 94.12049555 -0.18873104 92.65505107 -0.18673706 91.18960571 C-0.17916565 87.36575198 -0.15957444 83.54205448 -0.1373291 79.71826172 C-0.11672933 75.80308138 -0.10770538 71.88787537 -0.09765625 67.97265625 C-0.07632116 60.31502529 -0.0411935 52.6575546 0 45 C-6.27 45 -12.54 45 -19 45 C-19 39.06 -19 33.12 -19 27 C-16.03776042 26.83723958 -13.07552083 26.67447917 -10.11328125 26.51171875 C-6.73492769 25.95643103 -4.75080954 25.0073475 -2 23 C-0.79729036 20.59458071 -0.79683337 18.89633409 -0.68359375 16.2109375 C-0.64169922 15.26992188 -0.59980469 14.32890625 -0.55664062 13.359375 C-0.51732422 12.37453125 -0.47800781 11.3896875 -0.4375 10.375 C-0.39431641 9.38242187 -0.35113281 8.38984375 -0.30664062 7.3671875 C-0.20039053 4.91162967 -0.09967545 2.45583349 0 0 Z " fill="#191919" transform="translate(1930,461)"/>
<path d="M0 0 C6.27 0 12.54 0 19 0 C19 8.91 19 17.82 19 27 C27.91 27 36.82 27 46 27 C46 32.94 46 38.88 46 45 C37.09 45 28.18 45 19 45 C19.08561934 53.63223961 19.17943026 62.26428469 19.28752708 70.89627266 C19.33740014 74.9047718 19.38373069 78.91324573 19.421875 82.921875 C19.45884176 86.79289761 19.50523206 90.66370463 19.55806351 94.53454208 C19.5765471 96.00882039 19.59167718 97.48314481 19.60334396 98.95749283 C19.62031042 101.02803717 19.64936875 103.09809423 19.68115234 105.16845703 C19.69447601 106.34538116 19.70779968 107.5223053 19.7215271 108.7348938 C20.01262457 112.14802364 20.64927552 114.85440447 22 118 C26.64879631 120.41624367 31.73005095 120.41571394 36.875 120.625 C37.65875 120.66367187 38.4425 120.70234375 39.25 120.7421875 C41.16631367 120.83566622 43.08312319 120.91888495 45 121 C45 125.95 45 130.9 45 136 C34.00554264 138.79224314 21.73457968 139.69999319 11.5625 133.6875 C4.79772782 128.90669359 2.01267061 122.90617161 0 115 C-0.51998933 109.52993129 -0.4690167 104.09901944 -0.390625 98.61328125 C-0.38314738 97.05959305 -0.37746166 95.50589529 -0.37347412 93.95219421 C-0.35833711 89.89963891 -0.31916171 85.8476741 -0.2746582 81.79534912 C-0.23344481 77.64554833 -0.21540795 73.49565039 -0.1953125 69.34570312 C-0.1526528 61.23017004 -0.08240418 53.11522692 0 45 C-6.27 45 -12.54 45 -19 45 C-19 39.06 -19 33.12 -19 27 C-16.29817708 26.8046875 -13.59635417 26.609375 -10.89453125 26.4140625 C-7.83756621 25.97676386 -5.66698363 25.57531675 -3 24 C-0.56893523 19.15278497 -0.57939796 13.94612799 -0.375 8.625 C-0.25125 5.77875 -0.1275 2.9325 0 0 Z " fill="#191919" transform="translate(375,461)"/>
<path d="M0 0 C6.27 0 12.54 0 19 0 C19 49.83 19 99.66 19 151 C12.73 151 6.46 151 0 151 C0 101.17 0 51.34 0 0 Z " fill="#191919" transform="translate(1525,445)"/>
<path d="M0 0 C6.27 0 12.54 0 19 0 C19 49.83 19 99.66 19 151 C12.73 151 6.46 151 0 151 C0 101.17 0 51.34 0 0 Z " fill="#191919" transform="translate(1476,445)"/>
<path d="M0 0 C6.27 0 12.54 0 19 0 C19 49.83 19 99.66 19 151 C12.73 151 6.46 151 0 151 C0 101.17 0 51.34 0 0 Z " fill="#191919" transform="translate(706,445)"/>
<path d="M0 0 C6.27 0 12.54 0 19 0 C19 35.64 19 71.28 19 108 C12.73 108 6.46 108 0 108 C0 72.36 0 36.72 0 0 Z " fill="#191919" transform="translate(1425,488)"/>
<path d="M0 0 C6.27 0 12.54 0 19 0 C19 35.64 19 71.28 19 108 C12.73 108 6.46 108 0 108 C0 72.36 0 36.72 0 0 Z " fill="#191919" transform="translate(757,488)"/>
<path d="M0 0 C4.73512592 2.06623677 7.25384881 4.8984223 9.3046875 9.54296875 C11.93095411 18.82342771 10.06287328 28.44406686 6 37 C1.8854556 43.80325657 -2.56174646 48.42672598 -10.3359375 50.67578125 C-13.64000858 51.46170107 -16.59499189 52 -20 52 C-20 49.36 -20 46.72 -20 44 C-19.48050781 43.78085937 -18.96101563 43.56171875 -18.42578125 43.3359375 C-12.00326809 40.4155341 -8.3229602 37.40189766 -5.6875 30.625 C-5.460625 29.75875 -5.23375 28.8925 -5 28 C-5.59167969 27.92523437 -6.18335938 27.85046875 -6.79296875 27.7734375 C-11.20180788 27.03982968 -13.56158557 26.38361263 -17 23.375 C-19.33267409 19.43861247 -20.29166069 16.56051261 -20 12 C-18.6776382 7.41062668 -16.82733456 3.81963759 -12.9375 0.8828125 C-8.77739195 -1.0127206 -4.42870363 -0.69301622 0 0 Z " fill="#191919" transform="translate(1051,570)"/>
<path d="M0 0 C4.33211697 4.0072082 6.15673452 7.89109981 6.73828125 13.6875 C7.0580796 24.99826269 3.59935206 34.36325593 -3.75 42.9375 C-9.78717332 48.15142241 -15.59767401 49.94665157 -23.5 50.3125 C-23.5 47.6725 -23.5 45.0325 -23.5 42.3125 C-22.98050781 42.09335937 -22.46101563 41.87421875 -21.92578125 41.6484375 C-15.50326809 38.7280341 -11.8229602 35.71439766 -9.1875 28.9375 C-8.960625 28.07125 -8.73375 27.205 -8.5 26.3125 C-9.09167969 26.23773437 -9.68335938 26.16296875 -10.29296875 26.0859375 C-14.61892833 25.36612041 -17.62752313 24.78658707 -20.5 21.3125 C-23.44939891 16.88840163 -23.93396749 14.6936969 -23.5 9.3125 C-22.16426897 5.34886335 -20.44614144 2.22997048 -17.4375 -0.6875 C-11.49468497 -2.71058597 -5.66544788 -2.73155523 0 0 Z " fill="#191919" transform="translate(462.5,571.6875)"/>
<path d="M0 0 C2.9375 2.5 2.9375 2.5 5 5 C5.33 5.33 5.66 5.66 6 6 C6.51970735 11.07779636 6.80973158 15.53048714 4.3125 20.0625 C0.95367553 22.87665023 -1.61140112 23.82273206 -5.9375 24.375 C-10.84768745 23.77375256 -13.80165507 21.47795875 -16.875 17.6875 C-18.35117243 14.16108808 -18.46618895 11.79611 -18 8 C-16.17774814 4.35549628 -14.57798075 2.40721371 -11.25 0.0625 C-7.17043972 -1.2712024 -4.07519631 -1.40870984 0 0 Z " fill="#191919" transform="translate(1440,446)"/>
<path d="M0 0 C3.24044458 2.56535196 4.69560167 4.086805 6 8 C6.44217758 13.96939729 5.47508001 17.05313055 1.66796875 21.5859375 C-1.37868117 24.16881167 -5.12977215 24.10921278 -9 24 C-13.14452928 22.34218829 -15.74596628 19.8402056 -18 16 C-18.89438512 11.93322319 -18.91119895 8.5367556 -16.75390625 4.8984375 C-11.88131422 -1.00699823 -7.36017934 -1.91106411 0 0 Z " fill="#191919" transform="translate(773,446)"/>
</svg>
